<svg width="24" height="24" viewBox="0 0 24 24" fill="none" xmlns="http://www.w3.org/2000/svg">
<g clip-path="url(#clip0_178_8)">
<path d="M12.0259 1.90997C13.3496 1.9016 14.6617 2.15637 15.8862 2.659C17.1109 3.16175 18.2245 3.90256 19.1606 4.83868C20.0967 5.77476 20.8376 6.88751 21.3403 8.11212C21.8431 9.33683 22.0977 10.6496 22.0894 11.9734C22.0809 13.2971 21.8096 14.606 21.2915 15.824C20.7733 17.0423 20.0177 18.1459 19.0698 19.0701C17.1838 20.8916 14.6575 21.8996 12.0356 21.8768C9.41388 21.8539 6.90622 20.802 5.05225 18.9481C3.19816 17.094 2.14632 14.5857 2.12354 11.9637C2.10084 9.34192 3.10878 6.8164 4.93018 4.93048L4.9292 4.92853C5.85325 3.98084 6.95633 3.22599 8.17432 2.70782C9.39255 2.18959 10.702 1.91836 12.0259 1.90997ZM8.99951 10.9998C8.44747 11 7.99962 11.4477 7.99951 11.9998C7.99951 12.552 8.4474 12.9996 8.99951 12.9998H14.9995C15.5518 12.9998 15.9995 12.5521 15.9995 11.9998C15.9994 11.4476 15.5517 10.9998 14.9995 10.9998H8.99951Z" fill="white"/>
</g>
<defs>
<clipPath id="clip0_178_8">
<rect width="24" height="24" fill="white"/>
</clipPath>
</defs>
</svg>
